<svg width="20" height="20" viewBox="0 0 20 20" fill="none" xmlns="http://www.w3.org/2000/svg">
<path fill-rule="evenodd" clip-rule="evenodd" d="M4.34315 15.6569C7.46734 18.781 12.5327 18.781 15.6569 15.6569C18.781 12.5327 18.781 7.46734 15.6569 4.34315C12.5327 1.21895 7.46734 1.21895 4.34315 4.34315C1.21895 7.46734 1.21895 12.5327 4.34315 15.6569ZM2.92893 2.92893C-0.976311 6.83417 -0.976311 13.1658 2.92893 17.0711C6.83417 20.9763 13.1658 20.9763 17.0711 17.0711C20.9763 13.1658 20.9763 6.83417 17.0711 2.92893C13.1658 -0.976311 6.83417 -0.976311 2.92893 2.92893ZM6.11091 7.52513C5.91565 7.32986 5.91565 7.01328 6.11091 6.81802L6.81802 6.11091C7.01328 5.91565 7.32986 5.91565 7.52513 6.11091L10 8.58579L12.4749 6.11091C12.6701 5.91565 12.9867 5.91565 13.182 6.11091L13.8891 6.81802C14.0843 7.01328 14.0843 7.32986 13.8891 7.52513L11.4142 10L13.8891 12.4749C14.0843 12.6701 14.0843 12.9867 13.8891 13.182L13.182 13.8891C12.9867 14.0843 12.6701 14.0843 12.4749 13.8891L10 11.4142L7.52513 13.8891C7.32986 14.0843 7.01328 14.0843 6.81802 13.8891L6.11091 13.182C5.91565 12.9867 5.91565 12.6701 6.11091 12.4749L8.58579 10L6.11091 7.52513Z" fill="#707070"/>
</svg>
