<svg width="18" height="18" viewBox="0 0 18 18" fill="none" xmlns="http://www.w3.org/2000/svg">
<path fill-rule="evenodd" clip-rule="evenodd" d="M1.92894 16.0711C-0.0236778 14.1184 -0.0236778 10.9526 1.92894 9L4.05026 6.87868C4.44079 6.48815 5.07395 6.48815 5.46448 6.87868C5.855 7.2692 5.855 7.90237 5.46448 8.29289L3.34316 10.4142C2.17158 11.5858 2.17158 13.4853 3.34316 14.6569C4.51473 15.8284 6.41423 15.8284 7.5858 14.6569L9.70712 12.5355C10.0976 12.145 10.7308 12.145 11.1213 12.5355C11.5119 12.9261 11.5119 13.5592 11.1213 13.9497L9.00001 16.0711C7.04739 18.0237 3.88156 18.0237 1.92894 16.0711Z" fill="#707070"/>
<path fill-rule="evenodd" clip-rule="evenodd" d="M16.0711 1.92893C14.1185 -0.0236931 10.9526 -0.0236931 9.00001 1.92893L6.87869 4.05025C6.48817 4.44077 6.48817 5.07394 6.87869 5.46446C7.26922 5.85499 7.90238 5.85499 8.2929 5.46446L10.4142 3.34314C11.5858 2.17157 13.4853 2.17157 14.6569 3.34314C15.8284 4.51471 15.8284 6.41421 14.6569 7.58578L12.5355 9.7071C12.145 10.0976 12.145 10.7308 12.5355 11.1213C12.9261 11.5118 13.5592 11.5118 13.9498 11.1213L16.0711 9C18.0237 7.04737 18.0237 3.88155 16.0711 1.92893Z" fill="#707070"/>
<path fill-rule="evenodd" clip-rule="evenodd" d="M4.75737 13.2426C4.36685 12.8521 4.36685 12.2189 4.75737 11.8284L11.8284 4.75736C12.219 4.36683 12.8521 4.36683 13.2427 4.75736C13.6332 5.14788 13.6332 5.78104 13.2427 6.17157L6.17158 13.2426C5.78106 13.6332 5.14789 13.6332 4.75737 13.2426Z" fill="#707070"/>
</svg>
